<?xml version="1.0" encoding="UTF-8"?><svg id="a" xmlns="http://www.w3.org/2000/svg" xmlns:xlink="http://www.w3.org/1999/xlink" viewBox="0 0 1968.74 1347.23"><defs><style>.i{fill:#fff;stroke:#010121;}.i,.j,.k,.l,.m,.n,.o,.p{stroke-miterlimit:10;}.j{fill:url(#b);}.j,.k,.l,.m,.n,.o,.p{stroke:#fff;}.k{fill:url(#d);}.l{fill:url(#e);}.m{fill:url(#f);}.n{fill:url(#g);}.o{fill:url(#c);}.p{fill:url(#h);}</style><linearGradient id="b" x1="537.24" y1="482.47" x2="985.44" y2="1113.49" gradientTransform="translate(112.9 -55.68) rotate(8.99)" gradientUnits="userSpaceOnUse"><stop offset=".06" stop-color="#00eda6"/><stop offset=".4" stop-color="#00eda6"/><stop offset=".76" stop-color="#02bdb6"/></linearGradient><linearGradient id="c" x1="179.26" y1="162.96" x2="285.5" y2="162.96" gradientTransform="translate(112.9 -55.68) rotate(8.99)" gradientUnits="userSpaceOnUse"><stop offset=".09" stop-color="#2264ee"/><stop offset=".5" stop-color="#00eda6"/></linearGradient><linearGradient id="d" x1="-33.19" y1="165.01" x2="237.87" y2="165.01" xlink:href="#c"/><linearGradient id="e" x1="283.03" y1="211.1" x2="509.45" y2="211.1" xlink:href="#c"/><linearGradient id="f" x1="8.48" y1="116.02" x2="237.42" y2="116.02" xlink:href="#c"/><linearGradient id="g" x1="58.77" y1="240.43" x2="239.36" y2="240.43" gradientTransform="translate(112.9 -55.68) rotate(8.99)" gradientUnits="userSpaceOnUse"><stop offset=".09" stop-color="#2264ee"/><stop offset=".71" stop-color="#00e3b8"/></linearGradient><linearGradient id="h" x1="53.77" y1="86.33" x2="237.69" y2="86.33" xlink:href="#c"/></defs><path class="i" d="M11.78,1110.35L422.61,370.64c14.79-26.63,42.85-43.14,73.31-43.14h63.75c31.27,0,60.13,16.82,75.54,44.03l412.17,727.84c22.83,40.32,16.17,90.89-16.33,123.93h0c-38.31,38.94-102.83,32.33-132.46-13.56l-304.68-472.02c-28.66-44.4-93.52-44.61-122.46-.4l-305.97,467.28c-31.56,48.2-99.91,54.14-139.32,12.11l-1.42-1.52c-26.64-28.42-31.88-70.78-12.97-104.83Z"/><g><path class="j" d="M998.87,835.25c-32.02,202.38-151.13,369.02-312.39,466.81-28.1,17.02-57.39,31.92-87.75,44.63-11.74-3.88-21.89-11.36-28.67-22.25-8.8-14.15-9.94-31.24-4.79-47.13,33.03-11.68,64.84-26.49,94.88-44.22,30.4-17.95,59.04-38.86,85.46-62.41,21.93-19.53,42.34-40.89,60.98-63.87,58.83-72.53,100.03-161.3,115.72-260.5,23.51-148.58-14.57-292.49-95.16-405.15-17.23-24.09-36.4-46.74-57.34-67.69-77.26-77.42-178.45-131.81-294.23-150.13-15.41-2.44-30.83-4.17-46.14-5.28-34.2-2.45-67.95-1.56-100.97,2.41-5.45,.66-10.88,1.4-16.3,2.22,1.13-2.37,2.26-4.85,3.36-7.44,9.73-4.57,17-11.13,22.43-19.18,5.47-8.09,10.3-16.28,13.81-25.13,4.65-11.89,6.53-24.4,6.8-36.99,.13-9.28-.36-18.86-2.61-28.17-2.33-9.78-6.47-19.4-13.04-28.31,.05-2.88,.06-5.7,.03-8.46,2.57-.03,5.1-.06,7.65-.09,2.17-.01,4.35-.02,6.54,0,31.25,.19,62.96,2.67,94.69,7.49l3.26,.52c92.15,14.58,176.77,48.02,250.62,95.74,106.26,68.75,190.18,167.21,242.22,282.06,52.03,114.85,72.19,246.12,50.93,380.5Z"/><g><path class="o" d="M350.71,199.27c-5.92,8.17-12.73,15.65-22.26,21.21-.68,.41-1.38,.79-2.1,1.18-7.83,4.23-16.45,7.43-26.26,7.31-14.21-.09-25.41-5.98-34.32-14.84-3.54-3.52-6.76-7.34-9.68-11.2-2.53-3.36-1.48-6.33,2.13-7.46,3.43-1.16,6.64,.25,9.09,3.5,4.41,5.89,9.24,11.58,16.5,15.77,10.17,5.73,20.32,5.54,30.07,1.27,.55-.24,1.1-.48,1.64-.74,9.73-4.57,17-11.13,22.43-19.18,5.47-8.09,10.3-16.28,13.81-25.13,4.65-11.89,6.53-24.4,6.8-36.99,.13-9.28-.36-18.86-2.61-28.17-2.33-9.78-6.47-19.4-13.04-28.31-.55-.76-1.12-1.49-1.7-2.23-3.98-5.02-9.22-8.72-15.55-11.6-8.19-3.71-16.57-3.87-24.13-.77-5.61,2.25-10.53,5.59-15.58,8.55-2.42,1.41-4.98,1.91-7.81,.47-2.66-1.31-3.68-3.27-3.03-5.58,.2-.6,.48-1.27,1.04-1.72,9.11-7.51,19.71-13,33.68-13.74,7.33-.45,14.33,1.1,21.04,4.05,8.1,3.55,14.6,8.31,19.72,14.04,2.16,2.4,4.08,4.98,5.76,7.72,6.69,10.83,10.55,22.09,13.11,33.69,2.68,13.23,2.52,26.29-.33,40.07-1.64,16.94-7.33,33.68-18.43,48.85Z"/><path class="k" d="M302.72,144.75c-24.87-3.94-49.73-7.96-74.62-11.81-21.07-3.24-42.07-6.3-63.15-9.45-21.55-3.23-43-6.45-64.56-9.59-3.35-.53-6.83-.9-10.25-.99-1.15,0-2.52,.85-3.42,1.7-4.74,4.62-10.81,6.17-18.34,4.26-7.81-1.95-12.28-6.24-13.97-12.51-1.62-6.08,3.81-14.44,12.04-15.74,9.01-1.44,18.73,2.34,22.36,9.54,1.09,2.14,2.59,2.92,5.22,3.24,25.75,3.81,51.48,7.79,77.23,11.59,20.8,3.11,41.6,6.22,62.4,9.34,21.83,3.27,43.74,6.56,65.58,9.75,5.51,.78,11.06,1.3,16.57,2.08,4.75,.75,7.07,3,6.6,5.97-.5,3.15-3.38,4.48-8.33,3.79-3.74-.5-7.55-1.19-11.27-1.78-.03,.17-.07,.44-.1,.61Z"/><path class="l" d="M287.26,162.81c-6.89-1.09-13.85-2.37-20.77-3.29-20.48-2.7-40.95-6.12-61.4-7.83-25.73-2.1-49.69,1.45-69.78,13.77-2.95,1.77-6,3.53-8.8,5.5-.96,.65-1.57,2.08-1.44,3.09,2.01,11.42-11.67,19.47-25,14.4-8.82-3.37-14.64-11.9-10.44-19.74,3.66-6.85,14.38-9.99,23.56-6.48,2.7,1.05,4.46,.79,6.56-.4,8.24-4.43,16.26-9.25,25.06-12.96,16.97-7.08,35.92-7.93,55.48-7.25,20.52,.65,40.55,4.45,60.7,7.45,17.17,2.54,34.34,5.07,51.41,7.6,3.35,.53,5.94,1.66,6.63,4.54,.84,3.72-2.69,6.11-7.82,5.39-7.92-1.25-15.93-2.52-23.94-3.79Z"/><path class="m" d="M284.1,120.66l-25.71-4.07c-12.67-2-25.38-3.75-37.9-6.09-8.06-1.54-15.88-4.04-23.79-5.91-17.4-4.1-31.9-12.03-44.17-22.57-7.41-6.28-13.86-13.21-20.52-19.99-1.48-1.49-2.61-2.2-5.05-1.87-6.56,1.02-17.24-3.89-19.73-8.67-3.21-6.24-1.47-12.41,4.61-17.09,5.55-4.32,16.84-3.25,22.79,.83,6.98,4.78,9,10.74,5.85,17.32-.43,.92-.31,2.55,.51,3.39,4.05,4.58,8.19,9.18,12.66,13.56,12.98,12.71,29.3,21.83,48.46,26.83,20.08,5.24,40.66,8.58,61.28,11.58,18.47,2.74,36.85,5.47,55.32,8.22,3.26,.52,5.61,1.96,6.34,4.59,.59,2.33-1.06,4.31-3.52,4.73-2.65,.48-5.85,.15-8.66-.21-9.7-1.45-19.28-3.05-28.78-4.55Z"/><path class="n" d="M280.78,172.98l25.06,3.96c1.58,.25,3.29,.34,4.91,.33,3.42,.09,6.35,2.08,6.7,4.73,.33,2.74-1.83,4.91-5.2,5.09-.96,.03-1.9-.03-2.84-.18-14.47-2.11-28.91-4.39-43.32-6.23-10.2-1.34-20.64-2.91-30.78-2.81-20.45,.08-40.04,2.62-57.55,10.69-9.48,4.41-15.93,10.73-20.33,18.64-.79,1.4-.45,2.26,1.09,3.4,7.45,5.39,9.13,12.28,4.65,18.29-4.38,5.93-13.16,7.77-22.38,5.06-6.94-1.99-10.19-6.18-11.28-11.37-1.82-8.44,2.29-13.25,12.69-15.64,.89-.22,1.84-.78,2.13-1.37,7.32-16.66,22.95-26.19,43.43-31.91,17.37-4.77,35.45-6.21,54.25-4.94,12.94,.88,25.89,2.31,38.78,3.54-.03,.17-.07,.44-.02,.71Z"/><path class="p" d="M301.63,102.75l-24.97-3.95c-17.25-2.64-33.79-7.32-49.9-13.54-15.39-5.93-28.21-14.23-39.61-24.27-8.71-7.74-13.92-16.44-16.39-26.15-.45-1.95-.72-3.88-1.58-5.71-.43-.87-1.84-1.63-2.98-2.26-8.41-4.2-11.74-10.9-8.65-17.76,2.9-6.26,11.67-9.8,20.31-8.25,7.05,1.29,13.87,6.49,15.25,11.64,1.7,6.18-1.35,12.15-8.28,14.9-2.75,1.09-3.06,2.47-2.64,4.6,1.73,8.96,6.63,16.63,14.6,23.62,10.48,9.18,22.47,16.72,36.38,21.7,14.37,5.14,29.16,9.45,44.57,11.62,14.2,1.98,28.47,4.15,42.67,6.12l2.79,.44c3.96,.9,6.07,3.29,5.43,6.14-.52,2.69-3.33,4.13-7.25,3.6-6.63-.96-13.13-2.08-19.75-3.12,.05,.28,.02,.45,0,.63Z"/></g></g></svg>